<svg xmlns="http://www.w3.org/2000/svg" viewBox="0 0 512 512">
  <defs>
    <linearGradient id="bg" x1="0" y1="0" x2="1" y2="1">
      <stop stop-color="#555553"/>
      <stop offset="1" stop-color="#1d1d1c"/>
    </linearGradient>
  </defs>
  <rect width="512" height="512" fill="url(#bg)"/>
  <circle cx="256" cy="256" r="168" fill="#fff" opacity=".18"/>
  <path d="M148 272c0-95 45-148 108-148s108 53 108 148v90H148z" fill="#30242b"/>
  <ellipse cx="256" cy="260" rx="90" ry="111" fill="#c9825b"/>
  <path d="M166 225c18-68 52-96 93-96 48 0 83 37 88 104-33-29-66-36-99-30-32 6-57-3-71-22-1 17-5 30-11 44z" fill="#30242b"/>
  <g fill="#2b2530"><ellipse cx="218" cy="262" rx="9" ry="11"/><ellipse cx="295" cy="262" rx="9" ry="11"/></g>
  <path d="M225 318c18 17 46 17 64 0" fill="#fff" stroke="#8f4e4f" stroke-width="6" stroke-linejoin="round"/>
  <path d="M378 113l7 19 19 7-19 7-7 19-7-19-19-7 19-7z" fill="#f1f1ee"/>
</svg>
